<svg id="レイヤー_1" data-name="レイヤー 1" xmlns="http://www.w3.org/2000/svg" viewBox="0 0 48 48"><defs><style>.cls-1{fill:#cdcdcd;}.cls-2{fill:#fff;}</style></defs><title>Instagram</title><rect class="cls-1" width="48" height="48" rx="24"/><path class="cls-2" d="M38.34,17.18a8.54,8.54,0,0,0-1.73-4.63,7.51,7.51,0,0,0-4.78-2.74c-1-.17-2-.16-2.95-.24H19.05a12.2,12.2,0,0,0-4.41.65,7.18,7.18,0,0,0-4.35,4.22,8.51,8.51,0,0,0-.64,2.81c0,.49-.05,1-.08,1.47V29.53a10.76,10.76,0,0,0,.65,3.9,7.8,7.8,0,0,0,1.35,2.27,7.29,7.29,0,0,0,4.07,2.41,25,25,0,0,0,3,.32H29.32a11.23,11.23,0,0,0,3.78-.53,7.38,7.38,0,0,0,4-3.14,7.17,7.17,0,0,0,1.08-3C38.32,30.66,38.43,17.94,38.34,17.18ZM35.81,27.67a17.84,17.84,0,0,1-.35,4.12A4.86,4.86,0,0,1,33,35a6.1,6.1,0,0,1-2.48.66c-3.62.27-7.24.12-10.86.13A12.81,12.81,0,0,1,16,35.43a4.84,4.84,0,0,1-3.54-3.86,11,11,0,0,1-.21-2c0-3.36-.1-6.72-.07-10.07a11.38,11.38,0,0,1,.48-3.8,4.72,4.72,0,0,1,3.55-3.17,13,13,0,0,1,2.57-.29c3-.06,6.07-.1,9.1-.07a16.3,16.3,0,0,1,3.87.34,4.9,4.9,0,0,1,3.76,4c.17.82.2,1.67.31,2.66C35.83,21.89,35.87,24.78,35.81,27.67Z"/><path class="cls-2" d="M24,16.54A7.47,7.47,0,1,0,31.46,24,7.4,7.4,0,0,0,24,16.54ZM28.74,24A4.77,4.77,0,1,1,24,19.22,4.72,4.72,0,0,1,28.74,24Z"/><path class="cls-2" d="M31.71,18A1.66,1.66,0,0,1,30,16.24a1.77,1.77,0,0,1,3.53,0A1.68,1.68,0,0,1,31.71,18Z"/></svg>